<svg width="240" height="90" viewBox="0 0 240 90" fill="none" xmlns="http://www.w3.org/2000/svg">
<rect width="240" height="90" fill="white"/>
<path d="M52.7565 46.576L53.4765 39.904H53.1885L51.1245 45.28L43.9725 57.808H41.8605L34.3245 45.232L32.2125 39.904H31.9725L32.9325 46.528V64H26.6925V30.4H32.6925L41.6685 45.76L43.2525 49.6H43.4445L44.8845 45.664L53.3805 30.4H59.3325V64H52.7565V46.576ZM73.6751 53.488L74.5391 57.232H74.8271L75.4511 53.44L79.0991 40H85.5311L78.2351 61.648C77.6271 63.44 77.0351 65.072 76.4591 66.544C75.9151 68.048 75.3071 69.344 74.6351 70.432C73.9631 71.52 73.2111 72.352 72.3791 72.928C71.5791 73.536 70.6191 73.84 69.4991 73.84C67.8351 73.84 66.5071 73.568 65.5151 73.024L66.6671 68.032C67.1471 68.224 67.6271 68.32 68.1071 68.32C68.8431 68.32 69.5471 68 70.2191 67.36C70.9231 66.752 71.4511 65.632 71.8031 64L61.7711 40H69.2591L73.6751 53.488ZM121.019 38.224C121.019 39.056 120.907 39.888 120.683 40.72C120.491 41.552 120.155 42.32 119.675 43.024C119.195 43.696 118.571 44.304 117.803 44.848C117.035 45.36 116.107 45.744 115.019 46V46.288C115.979 46.448 116.891 46.72 117.755 47.104C118.619 47.488 119.371 48.016 120.011 48.688C120.651 49.36 121.147 50.176 121.499 51.136C121.883 52.096 122.075 53.232 122.075 54.544C122.075 56.272 121.707 57.776 120.971 59.056C120.235 60.304 119.243 61.328 117.995 62.128C116.779 62.928 115.387 63.52 113.819 63.904C112.251 64.288 110.635 64.48 108.971 64.48C108.427 64.48 107.723 64.48 106.859 64.48C106.027 64.48 105.115 64.448 104.123 64.384C103.163 64.352 102.171 64.288 101.147 64.192C100.155 64.096 99.2433 63.952 98.4113 63.76V30.64C99.0193 30.544 99.7073 30.448 100.475 30.352C101.275 30.256 102.123 30.176 103.019 30.112C103.915 30.048 104.827 30 105.755 29.968C106.715 29.936 107.659 29.92 108.587 29.92C110.155 29.92 111.675 30.048 113.147 30.304C114.651 30.528 115.979 30.944 117.131 31.552C118.315 32.16 119.259 33.008 119.963 34.096C120.667 35.184 121.019 36.56 121.019 38.224ZM109.019 59.056C109.819 59.056 110.587 58.96 111.323 58.768C112.091 58.576 112.763 58.288 113.339 57.904C113.915 57.488 114.379 56.976 114.731 56.368C115.083 55.76 115.259 55.04 115.259 54.208C115.259 53.152 115.051 52.32 114.635 51.712C114.219 51.104 113.675 50.64 113.003 50.32C112.331 49.968 111.579 49.744 110.747 49.648C109.915 49.552 109.083 49.504 108.251 49.504H104.747V58.768C104.907 58.832 105.163 58.88 105.515 58.912C105.867 58.944 106.235 58.976 106.619 59.008C107.035 59.008 107.451 59.024 107.867 59.056C108.315 59.056 108.699 59.056 109.019 59.056ZM106.859 44.512C107.307 44.512 107.819 44.496 108.395 44.464C109.003 44.432 109.499 44.384 109.883 44.32C111.099 43.936 112.139 43.36 113.003 42.592C113.899 41.824 114.347 40.816 114.347 39.568C114.347 38.736 114.187 38.048 113.867 37.504C113.547 36.96 113.115 36.528 112.571 36.208C112.059 35.888 111.467 35.664 110.795 35.536C110.123 35.408 109.419 35.344 108.683 35.344C107.851 35.344 107.083 35.36 106.379 35.392C105.675 35.424 105.131 35.472 104.747 35.536V44.512H106.859ZM125.475 52C125.475 47.936 126.467 44.816 128.451 42.64C130.435 40.432 133.219 39.328 136.803 39.328C138.723 39.328 140.387 39.632 141.795 40.24C143.203 40.848 144.371 41.712 145.299 42.832C146.227 43.92 146.915 45.248 147.363 46.816C147.843 48.384 148.083 50.112 148.083 52C148.083 56.064 147.091 59.2 145.107 61.408C143.155 63.584 140.387 64.672 136.803 64.672C134.883 64.672 133.219 64.368 131.811 63.76C130.403 63.152 129.219 62.304 128.259 61.216C127.331 60.096 126.627 58.752 126.147 57.184C125.699 55.616 125.475 53.888 125.475 52ZM131.907 52C131.907 53.056 132.003 54.032 132.195 54.928C132.387 55.824 132.675 56.608 133.059 57.28C133.443 57.952 133.939 58.48 134.547 58.864C135.187 59.216 135.939 59.392 136.803 59.392C138.435 59.392 139.651 58.8 140.451 57.616C141.251 56.432 141.651 54.56 141.651 52C141.651 49.792 141.283 48.016 140.547 46.672C139.811 45.296 138.563 44.608 136.803 44.608C135.267 44.608 134.067 45.184 133.203 46.336C132.339 47.488 131.907 49.376 131.907 52ZM165.656 45.856C164.664 45.504 163.768 45.328 162.968 45.328C161.848 45.328 160.904 45.632 160.136 46.24C159.4 46.816 158.904 47.568 158.648 48.496V64H152.408V40H157.256L157.976 43.168H158.168C158.712 41.984 159.448 41.072 160.376 40.432C161.304 39.792 162.392 39.472 163.64 39.472C164.472 39.472 165.416 39.648 166.472 40L165.656 45.856ZM169.092 41.392C170.372 40.816 171.892 40.368 173.652 40.048C175.412 39.696 177.252 39.52 179.172 39.52C180.836 39.52 182.228 39.728 183.348 40.144C184.468 40.528 185.348 41.088 185.988 41.824C186.66 42.56 187.124 43.44 187.38 44.464C187.668 45.488 187.812 46.64 187.812 47.92C187.812 49.328 187.764 50.752 187.668 52.192C187.572 53.6 187.508 54.992 187.476 56.368C187.476 57.744 187.524 59.088 187.62 60.4C187.716 61.68 187.956 62.896 188.34 64.048H183.252L182.244 60.736H182.004C181.364 61.728 180.468 62.592 179.316 63.328C178.196 64.032 176.74 64.384 174.948 64.384C173.828 64.384 172.82 64.224 171.924 63.904C171.028 63.552 170.26 63.072 169.62 62.464C168.98 61.824 168.484 61.088 168.132 60.256C167.78 59.392 167.604 58.432 167.604 57.376C167.604 55.904 167.924 54.672 168.564 53.68C169.236 52.656 170.18 51.84 171.396 51.232C172.644 50.592 174.116 50.16 175.812 49.936C177.54 49.68 179.46 49.6 181.572 49.696C181.796 47.904 181.668 46.624 181.188 45.856C180.708 45.056 179.636 44.656 177.972 44.656C176.724 44.656 175.396 44.784 173.988 45.04C172.612 45.296 171.476 45.632 170.58 46.048L169.092 41.392ZM177.012 59.248C178.26 59.248 179.252 58.976 179.988 58.432C180.724 57.856 181.268 57.248 181.62 56.608V53.488C180.628 53.392 179.668 53.376 178.74 53.44C177.844 53.504 177.044 53.648 176.34 53.872C175.636 54.096 175.076 54.416 174.66 54.832C174.244 55.248 174.036 55.776 174.036 56.416C174.036 57.312 174.292 58.016 174.804 58.528C175.348 59.008 176.084 59.248 177.012 59.248ZM213.449 55.552C213.449 56.896 213.465 58.24 213.497 59.584C213.529 60.928 213.673 62.416 213.929 64.048H209.465L208.601 60.928H208.409C207.769 62.048 206.841 62.96 205.625 63.664C204.441 64.336 203.033 64.672 201.401 64.672C198.393 64.672 196.057 63.68 194.393 61.696C192.729 59.712 191.896 56.608 191.896 52.384C191.896 48.288 192.825 45.104 194.681 42.832C196.537 40.56 199.257 39.424 202.841 39.424C203.833 39.424 204.649 39.488 205.289 39.616C205.929 39.712 206.569 39.888 207.209 40.144V30.4H213.449V55.552ZM202.841 59.392C204.057 59.392 205.017 59.104 205.721 58.528C206.425 57.92 206.921 57.056 207.209 55.936V45.76C206.761 45.408 206.265 45.152 205.721 44.992C205.177 44.8 204.473 44.704 203.609 44.704C201.849 44.704 200.521 45.296 199.625 46.48C198.761 47.664 198.329 49.696 198.329 52.576C198.329 54.624 198.681 56.272 199.385 57.52C200.121 58.768 201.273 59.392 202.841 59.392Z" fill="black"/>
</svg>
